<?xml version="1.0" encoding="utf-8"?>
<!-- Generator: Adobe Illustrator 16.0.0, SVG Export Plug-In . SVG Version: 6.00 Build 0)  -->
<!DOCTYPE svg PUBLIC "-//W3C//DTD SVG 1.1 Tiny//EN" "http://www.w3.org/Graphics/SVG/1.1/DTD/svg11-tiny.dtd">
<svg version="1.1" baseProfile="tiny" id="Layer_1" xmlns="http://www.w3.org/2000/svg" xmlns:xlink="http://www.w3.org/1999/xlink"
	 x="0px" y="0px" width="741.032px" height="251px" viewBox="0 0 741.032 251" xml:space="preserve">
<g>
	<rect x="288" fill="#4D4D4D" width="210" height="5"/>
	<line fill="none" stroke="#4D4D4D" stroke-width="5" stroke-miterlimit="10" x1="479" y1="125.5" x2="306" y2="125.5"/>
	<g>
		<rect x="288" y="246" fill="#4D4D4D" width="210" height="5"/>
		
			<rect x="722.134" y="-1.331" transform="matrix(-0.9224 -0.3862 0.3862 -0.9224 1379.4694 347.4436)" fill="#4D4D4D" width="4.999" height="72.982"/>
		
			<rect x="580.505" y="-8.64" transform="matrix(0.9244 -0.3815 0.3815 0.9244 -3.7841 231.912)" fill="#4D4D4D" width="4.999" height="268.28"/>
		<polygon fill="#4D4D4D" points="72,246 72,187 67,187 67,251 132,251 132,246 		"/>
		<path fill="#4D4D4D" d="M72,5h81.019c44.34,0,72.186,21.909,87.736,40.288C259.694,67.67,271,97.834,271,125.975h5
			c0-29.288-11.749-60.659-31.427-83.917C228.338,22.872,199.276,0,153.019,0H67v122H0v5h72V5z"/>
	</g>
</g>
</svg>
